<svg width="836" height="87" viewBox="0 0 836 87" fill="none" xmlns="http://www.w3.org/2000/svg">
  <rect
    x="0.920898"
    y="1.08984"
    width="833.835"
    height="85.2165"
    rx="42.6083"
    fill="#41D1FF"
    fill-opacity="0.63"
  />
  <rect x="0.920898" y="1.08984" width="833.835" height="85.2165" rx="42.6083" stroke="#41D1FF" />
  <circle cx="47.5292" cy="43.6981" r="31.1083" fill="#383A3E" />
  <g clip-path="url(#clip0_206_6317)">
    <path
      d="M42.0532 60.3375C45.0113 60.3375 47.4122 57.8223 47.4122 54.7233V49.1091H42.0532C39.095 49.1091 36.6942 51.6243 36.6942 54.7233C36.6942 57.8223 39.095 60.3375 42.0532 60.3375Z"
      fill="#0ACF83"
    />
    <path
      d="M36.6942 43.4985C36.6942 40.3994 39.095 37.8843 42.0531 37.8843H47.4121V49.1126H42.0531C39.095 49.1126 36.6942 46.5975 36.6942 43.4985Z"
      fill="#A259FF"
    />
    <path
      d="M36.6942 32.2682C36.6942 29.1692 39.095 26.6541 42.0532 26.6541H47.4122V37.8824H42.0532C39.095 37.8824 36.6942 35.3673 36.6942 32.2682Z"
      fill="#F24E1E"
    />
    <path
      d="M47.4122 26.6541H52.7712C55.7294 26.6541 58.1302 29.1692 58.1302 32.2682C58.1302 35.3673 55.7294 37.8824 52.7712 37.8824H47.4122V26.6541Z"
      fill="#FF7262"
    />
    <path
      d="M58.1302 43.4985C58.1302 46.5975 55.7294 49.1126 52.7712 49.1126C49.8131 49.1126 47.4122 46.5975 47.4122 43.4985C47.4122 40.3994 49.8131 37.8843 52.7712 37.8843C55.7294 37.8843 58.1302 40.3994 58.1302 43.4985Z"
      fill="#1ABCFE"
    />
  </g>
  <circle cx="101.63" cy="43.6981" r="31.1083" fill="#820966" />
  <path
    d="M102.963 33.4051L96.4919 44.0994L103.415 55.4553C103.46 55.5348 103.472 55.6281 103.45 55.7165C103.439 55.7543 103.416 55.7636 103.381 55.765L103.342 55.7644L103.294 55.7632C103.268 55.7632 103.239 55.7644 103.207 55.7697H98.2149L98.1169 55.7681C97.8478 55.761 97.654 55.7224 97.5359 55.5249C97.074 54.6239 96.6101 53.7241 96.1441 52.8253C95.7273 52.0236 95.2991 51.2279 94.8597 50.4385L94.6656 50.0908C94.1401 49.1556 93.624 48.215 93.1175 47.2693H93.0826C92.6148 48.2052 92.1335 49.1341 91.6388 50.0559C91.1398 50.9849 90.6469 51.9083 90.1601 52.8253C89.673 53.743 89.1743 54.6546 88.6642 55.5597C88.5822 55.7443 88.4458 55.7829 88.256 55.7892L88.177 55.7904H83.4107L83.3901 55.791L83.322 55.7971C83.2841 55.7993 83.2614 55.7912 83.2541 55.734C83.2411 55.649 83.2597 55.5623 83.3064 55.4902L90.0209 44.4477L83.4802 33.3707C83.4107 33.2782 83.3992 33.2027 83.4454 33.1443C83.4711 33.1145 83.5033 33.0912 83.5395 33.076C83.5758 33.0609 83.6151 33.0544 83.6542 33.0571H88.5597C88.6666 33.0512 88.7736 33.0691 88.8729 33.1094C88.9559 33.1567 89.0274 33.2222 89.0815 33.3011C89.4991 34.2301 89.963 35.1591 90.4733 36.0877C90.9797 37.0104 91.4957 37.9278 92.0215 38.8396C92.5391 39.7373 93.0208 40.6553 93.4653 41.5915H93.5001C93.9557 40.6555 94.4254 39.7266 94.9091 38.8049C95.3842 37.8992 95.8714 36.9875 96.3702 36.0702C96.8626 35.1648 97.3439 34.2533 97.814 33.336C97.8408 33.25 97.8886 33.1721 97.9532 33.1094C98.0391 33.0658 98.1357 33.0477 98.2315 33.0571H102.789C102.831 33.0466 102.875 33.0501 102.915 33.0669C102.955 33.0837 102.988 33.113 103.01 33.1504C103.031 33.1878 103.04 33.2312 103.035 33.2742C103.03 33.3171 103.011 33.3572 102.982 33.3885L102.963 33.4055L102.963 33.4051ZM113.188 56.219L112.948 56.2216C111.346 56.246 109.76 55.9129 108.303 55.2464C106.946 54.6175 105.812 53.5911 105.05 52.3028C104.282 51.0257 103.888 49.4342 103.868 47.529L103.867 47.3738C103.854 45.775 104.262 44.2011 105.05 42.8105C105.839 41.4342 106.989 40.3003 108.375 39.5315L108.495 39.4666C110.002 38.6305 111.823 38.2124 113.957 38.2124L114.05 38.2134L114.156 38.2169L114.276 38.2221L114.409 38.2298L114.632 38.2457L114.885 38.266L115.07 38.2822V31.4198C115.07 31.2575 115.14 31.1759 115.279 31.1759H119.662C119.691 31.1719 119.72 31.1745 119.747 31.1835C119.774 31.1926 119.799 31.2079 119.819 31.2281C119.839 31.2484 119.854 31.2731 119.863 31.3003C119.872 31.3275 119.875 31.3565 119.871 31.3849V51.9719C119.871 52.3176 119.884 52.69 119.911 53.0884L119.976 53.992L120.01 54.5147C120.015 54.5871 119.997 54.6591 119.96 54.7213C119.922 54.7835 119.867 54.8329 119.802 54.8632C118.671 55.3354 117.493 55.6856 116.288 55.908C115.265 56.0971 114.228 56.2011 113.188 56.219ZM115.07 51.9022V42.3925C114.882 42.3415 114.69 42.3066 114.496 42.288C114.259 42.2642 114.021 42.2525 113.783 42.2531C112.938 42.2448 112.104 42.4357 111.347 42.8105C110.61 43.1774 109.981 43.7295 109.521 44.413C109.062 45.0856 108.824 45.9639 108.808 47.0478L108.808 47.1649C108.791 47.9242 108.914 48.68 109.173 49.3941C109.383 49.9695 109.716 50.4925 110.147 50.9269C110.56 51.3265 111.061 51.6246 111.608 51.7977C112.187 51.9853 112.792 52.0795 113.4 52.0766C113.725 52.0766 114.026 52.0648 114.305 52.0415C114.527 52.0248 114.747 51.9881 114.963 51.932L115.07 51.9022Z"
    fill="#FF61F6"
  />
  <circle cx="155.732" cy="43.6981" r="31.1083" fill="#E8E8EB" />
  <path
    d="M143.899 36.2229C143.727 36.3337 143.584 36.4863 143.486 36.6665C143.387 36.8467 143.335 37.0489 143.335 37.2543V52.8371C143.339 53.3036 143.474 53.7597 143.725 54.153C143.975 54.5464 144.332 54.861 144.754 55.0609L154.358 59.6053C154.911 59.8599 155.513 59.9917 156.122 59.9917C156.732 59.9917 157.334 59.8599 157.887 59.6053L167.491 55.0609C167.913 54.861 168.269 54.5464 168.52 54.153C168.771 53.7597 168.906 53.3036 168.909 52.8371V37.2543C168.911 37.0467 168.858 36.8424 168.756 36.6616C168.655 36.4807 168.507 36.3295 168.329 36.2229L164.736 34.3697V32.7583C164.734 32.4621 164.65 32.1721 164.494 31.9203L162.351 28.4396C162.243 28.2629 162.091 28.1169 161.911 28.0156C161.73 27.9143 161.526 27.8611 161.319 27.8611C161.112 27.8611 160.909 27.9143 160.728 28.0156C160.548 28.1169 160.396 28.2629 160.288 28.4396L158.217 31.8397L157.154 30.1155C157.043 29.9425 156.89 29.8002 156.71 29.7017C156.53 29.6031 156.328 29.5514 156.122 29.5515C155.916 29.5575 155.715 29.6134 155.535 29.7144C155.356 29.8155 155.203 29.9586 155.091 30.1316L154.044 31.8397L151.933 28.4396C151.825 28.2629 151.673 28.1169 151.493 28.0156C151.312 27.9143 151.108 27.8611 150.901 27.8611C150.694 27.8611 150.491 27.9143 150.31 28.0156C150.129 28.1169 149.978 28.2629 149.87 28.4396L147.751 31.9203C147.595 32.1721 147.511 32.4621 147.509 32.7583V34.3697L143.899 36.2229ZM164.736 36.2068L165.864 36.7708L164.736 37.3026V36.2068ZM160.804 30.6795H161.835L162.641 31.9848H159.998L160.804 30.6795ZM163.124 33.5962V38.06L162.141 38.5273V33.5962H163.124ZM159.531 33.5962H160.53V39.2847L159.531 39.7682V33.5962ZM150.394 30.6795H151.425L152.231 31.9848H149.588L150.394 30.6795ZM152.714 33.5962V39.752L151.731 39.2847V33.5962H152.714ZM149.121 33.5962H150.12V38.5273L149.121 38.06V33.5962ZM147.509 36.2068V37.3026L146.381 36.7708L147.509 36.2068ZM145.43 53.5945C145.286 53.5272 145.164 53.4202 145.079 53.2861C144.993 53.152 144.947 52.9962 144.947 52.8371V37.8666L155.309 42.7655V58.2194L145.43 53.5945ZM155.309 40.9768L154.326 40.5094V35.2883H155.309V40.9768ZM154.793 33.6768L155.615 32.3554H156.614L157.436 33.6768H154.793ZM157.919 35.2883V40.5255L156.92 40.9929V35.2883H157.919ZM156.928 58.2355V42.7816L167.306 37.8666V52.8371C167.306 52.9985 167.259 53.1563 167.17 53.291C167.081 53.4257 166.955 53.5312 166.806 53.5945L156.928 58.2355Z"
    fill="black"
  />
  <path
    d="M189.545 45.2197H205.775"
    stroke="#41D1FF"
    stroke-width="1.35253"
    stroke-linecap="round"
    stroke-dasharray="1.35 2.71"
  />
  <circle cx="227.585" cy="45.2197" r="28.5723" fill="#41D1FF" fill-opacity="0.22" />
  <circle cx="227.58" cy="45.2211" r="18.1444" fill="#41D1FF" />
  <circle cx="227.581" cy="45.2201" r="23.8627" fill="#41D1FF" fill-opacity="0.22" />
  <path
    d="M219.619 40.5413L224.296 45.2179L219.619 49.895"
    stroke="white"
    stroke-opacity="0.33"
    stroke-width="2.70507"
    stroke-linecap="round"
    stroke-linejoin="round"
  />
  <path
    d="M225.417 40.5413L230.094 45.2179L225.417 49.895"
    stroke="white"
    stroke-opacity="0.64"
    stroke-width="2.70507"
    stroke-linecap="round"
    stroke-linejoin="round"
  />
  <path
    d="M230.862 40.5413L235.539 45.2179L230.862 49.895"
    stroke="white"
    stroke-width="2.70507"
    stroke-linecap="round"
    stroke-linejoin="round"
  />
  <path
    d="M249.395 45.2197H265.625"
    stroke="#41D1FF"
    stroke-width="1.35253"
    stroke-linecap="round"
    stroke-dasharray="1.35 2.71"
  />
  <circle cx="299.438" cy="43.6981" r="31.1083" fill="#F1F5FB" />
  <g clip-path="url(#clip1_206_6317)">
    <path
      d="M322.606 43.6921C322.606 46.7616 318.762 49.6705 312.868 51.4744C314.228 57.4811 313.624 62.26 310.961 63.79C310.347 64.1489 309.629 64.3189 308.845 64.3189V62.2128C309.28 62.2128 309.629 62.1278 309.922 61.9672C311.206 61.2306 311.763 58.4255 311.329 54.8177C311.225 53.93 311.055 52.9949 310.847 52.041C308.996 52.4944 306.975 52.8438 304.85 53.0705C303.575 54.8177 302.253 56.4044 300.921 57.7928C304 60.6545 306.89 62.2222 308.855 62.2222V64.3284C306.257 64.3284 302.857 62.4772 299.419 59.2661C295.982 62.4584 292.582 64.2906 289.984 64.2906V62.1845C291.939 62.1845 294.839 60.6261 297.918 57.7833C296.596 56.395 295.273 54.8177 294.017 53.0705C291.883 52.8438 289.862 52.4944 288.01 52.0316C287.793 52.9761 287.633 53.8922 287.519 54.7705C287.075 58.3783 287.623 61.1833 288.898 61.9295C289.182 62.0995 289.55 62.175 289.984 62.175V64.2811C289.191 64.2811 288.473 64.1111 287.85 63.7523C285.196 62.2222 284.601 57.4528 285.97 51.4649C280.096 49.6516 276.271 46.7521 276.271 43.6921C276.271 40.6226 280.115 37.7137 286.008 35.9098C284.648 29.9031 285.253 25.1242 287.916 23.5942C288.53 23.2353 289.248 23.0653 290.041 23.0653C292.638 23.0653 296.038 24.9164 299.476 28.1275C302.914 24.9353 306.314 23.103 308.911 23.103C309.705 23.103 310.422 23.273 311.046 23.6319C313.7 25.1619 314.295 29.9314 312.925 35.9193C318.781 37.7232 322.606 40.6321 322.606 43.6921ZM310.309 49.9916C309.96 48.7732 309.525 47.5171 309.034 46.261C308.647 47.0166 308.241 47.7721 307.797 48.5277C307.362 49.2833 306.9 50.0199 306.437 50.7377C307.778 50.5394 309.072 50.2938 310.309 49.9916ZM305.983 39.9332C305.247 38.6582 304.491 37.4493 303.707 36.3254C302.3 36.2026 300.874 36.1365 299.438 36.1365C298.012 36.1365 296.586 36.2026 295.188 36.3159C294.404 37.4398 293.639 38.6393 292.903 39.9048C292.185 41.1421 291.533 42.3982 290.938 43.6638C291.524 44.9293 292.185 46.1949 292.893 47.4321C293.63 48.7071 294.386 49.916 295.169 51.0399C296.577 51.1627 298.003 51.2288 299.438 51.2288C300.864 51.2288 302.291 51.1627 303.688 51.0494C304.472 49.9255 305.237 48.726 305.974 47.4605C306.692 46.2232 307.343 44.9671 307.938 43.7015C307.343 42.436 306.692 41.1704 305.983 39.9332ZM309.034 41.161C309.544 39.8954 309.978 38.6298 310.337 37.402C309.1 37.0998 307.797 36.8448 306.446 36.6465C306.909 37.3737 307.372 38.1198 307.806 38.8848C308.241 39.6404 308.647 40.4054 309.034 41.161ZM299.457 31.0837C298.579 31.9903 297.701 33.0009 296.832 34.1059C297.682 34.0681 298.551 34.0398 299.429 34.0398C300.317 34.0398 301.195 34.0587 302.054 34.1059C301.204 33.0009 300.326 31.9903 299.457 31.0837ZM292.431 36.6465C291.089 36.8448 289.795 37.0904 288.558 37.3926C288.908 38.6109 289.342 39.8671 289.833 41.1232C290.22 40.3676 290.627 39.6121 291.071 38.8565C291.514 38.1009 291.968 37.3643 292.431 36.6465ZM299.41 56.3005C300.288 55.3939 301.167 54.3833 302.036 53.2783C301.186 53.3161 300.317 53.3444 299.438 53.3444C298.551 53.3444 297.672 53.3255 296.813 53.2783C297.663 54.3833 298.541 55.3939 299.41 56.3005ZM292.421 50.7377C291.958 50.0105 291.496 49.2644 291.061 48.4994C290.627 47.7438 290.22 46.9882 289.833 46.2327C289.323 47.4982 288.889 48.7638 288.53 49.9916C289.767 50.2844 291.071 50.5394 292.421 50.7377ZM283.874 38.9132C280.53 40.3393 278.368 42.2093 278.368 43.6921C278.368 45.1749 280.53 47.0543 283.874 48.471C284.686 48.8205 285.574 49.1321 286.49 49.4249C287.028 47.5738 287.737 45.6471 288.615 43.6732C287.746 41.7087 287.047 39.7915 286.518 37.9498C285.583 38.2426 284.695 38.5637 283.874 38.9132ZM288.955 25.417C287.67 26.1536 287.113 28.9586 287.548 32.5665C287.652 33.4542 287.822 34.3892 288.029 35.3431C289.88 34.8898 291.902 34.5404 294.027 34.3137C295.302 32.5665 296.624 30.9798 297.956 29.5914C294.877 26.7297 291.987 25.1619 290.022 25.1619C289.597 25.1714 289.238 25.2564 288.955 25.417ZM311.357 32.6137C311.801 29.0059 311.253 26.2008 309.978 25.4547C309.695 25.2847 309.327 25.2092 308.892 25.2092C306.937 25.2092 304.038 26.7675 300.959 29.6103C302.281 30.9987 303.603 32.5759 304.86 34.3231C306.994 34.5498 309.015 34.8993 310.866 35.362C311.083 34.4081 311.253 33.492 311.357 32.6137ZM314.993 38.9132C314.181 38.5637 313.293 38.2521 312.377 37.9593C311.839 39.8104 311.131 41.7371 310.252 43.711C311.121 45.6754 311.82 47.5927 312.349 49.4344C313.284 49.1416 314.172 48.8205 315.003 48.471C318.346 47.0449 320.509 45.1749 320.509 43.6921C320.5 42.2093 318.337 40.3298 314.993 38.9132Z"
      fill="#3DC3E8"
    />
    <path
      d="M299.428 39.377C301.812 39.377 303.744 41.3094 303.744 43.6931C303.744 46.0769 301.812 48.0093 299.428 48.0093C297.044 48.0093 295.112 46.0769 295.112 43.6931C295.112 41.3094 297.044 39.377 299.428 39.377Z"
      fill="#3DC3E8"
    />
  </g>
  <circle cx="353.54" cy="43.6981" r="31.1083" fill="#3DC3E8" />
  <g clip-path="url(#clip2_206_6317)">
    <path
      d="M376.707 43.6933C376.707 46.7628 372.863 49.6717 366.97 51.4756C368.33 57.4823 367.725 62.2612 365.062 63.7913C364.448 64.1501 363.73 64.3201 362.946 64.3201V62.214C363.381 62.214 363.73 62.129 364.023 61.9685C365.308 61.2318 365.865 58.4268 365.43 54.819C365.326 53.9312 365.156 52.9962 364.949 52.0423C363.098 52.4956 361.076 52.8451 358.951 53.0717C357.676 54.819 356.354 56.4056 355.023 57.794C358.101 60.6557 360.991 62.2235 362.956 62.2235V64.3296C360.359 64.3296 356.959 62.4785 353.521 59.2673C350.083 62.4596 346.683 64.2918 344.086 64.2918V62.1857C346.041 62.1857 348.94 60.6273 352.019 57.7845C350.697 56.3962 349.375 54.819 348.119 53.0717C345.984 52.8451 343.963 52.4956 342.112 52.0328C341.895 52.9773 341.734 53.8934 341.621 54.7717C341.177 58.3795 341.725 61.1846 343 61.9307C343.283 62.1007 343.651 62.1762 344.086 62.1762V64.2824C343.292 64.2824 342.575 64.1124 341.951 63.7535C339.297 62.2235 338.702 57.454 340.072 51.4662C334.197 49.6528 330.372 46.7533 330.372 43.6933C330.372 40.6238 334.216 37.7149 340.11 35.911C338.75 29.9043 339.354 25.1254 342.017 23.5954C342.631 23.2365 343.349 23.0665 344.142 23.0665C346.74 23.0665 350.14 24.9176 353.578 28.1287C357.015 24.9365 360.415 23.1043 363.013 23.1043C363.806 23.1043 364.524 23.2743 365.147 23.6332C367.801 25.1632 368.396 29.9327 367.027 35.9205C372.882 37.7244 376.707 40.6333 376.707 43.6933ZM364.41 49.9928C364.061 48.7745 363.626 47.5183 363.135 46.2622C362.748 47.0178 362.342 47.7733 361.898 48.5289C361.464 49.2845 361.001 50.0211 360.538 50.7389C361.879 50.5406 363.173 50.295 364.41 49.9928ZM360.085 39.9344C359.348 38.6594 358.593 37.4505 357.809 36.3266C356.401 36.2038 354.975 36.1377 353.54 36.1377C352.114 36.1377 350.687 36.2038 349.29 36.3171C348.506 37.441 347.741 38.6405 347.004 39.9061C346.286 41.1433 345.635 42.3994 345.04 43.665C345.625 44.9305 346.286 46.1961 346.995 47.4333C347.731 48.7084 348.487 49.9173 349.271 51.0412C350.678 51.1639 352.104 51.23 353.54 51.23C354.966 51.23 356.392 51.1639 357.79 51.0506C358.574 49.9267 359.339 48.7272 360.075 47.4617C360.793 46.2244 361.445 44.9683 362.04 43.7028C361.445 42.4372 360.793 41.1716 360.085 39.9344ZM363.135 41.1622C363.645 39.8966 364.08 38.6311 364.439 37.4033C363.201 37.101 361.898 36.846 360.548 36.6477C361.01 37.3749 361.473 38.1211 361.908 38.8861C362.342 39.6416 362.748 40.4066 363.135 41.1622ZM353.559 31.0849C352.68 31.9916 351.802 33.0021 350.933 34.1071C351.783 34.0694 352.652 34.041 353.53 34.041C354.418 34.041 355.296 34.0599 356.156 34.1071C355.306 33.0021 354.428 31.9916 353.559 31.0849ZM346.532 36.6477C345.191 36.846 343.897 37.0916 342.66 37.3938C343.009 38.6122 343.444 39.8683 343.935 41.1244C344.322 40.3688 344.728 39.6133 345.172 38.8577C345.616 38.1022 346.069 37.3655 346.532 36.6477ZM353.511 56.3018C354.39 55.3951 355.268 54.3845 356.137 53.2795C355.287 53.3173 354.418 53.3456 353.54 53.3456C352.652 53.3456 351.774 53.3267 350.914 53.2795C351.764 54.3845 352.642 55.3951 353.511 56.3018ZM346.522 50.7389C346.06 50.0117 345.597 49.2656 345.162 48.5006C344.728 47.745 344.322 46.9895 343.935 46.2339C343.425 47.4995 342.99 48.765 342.631 49.9928C343.869 50.2856 345.172 50.5406 346.522 50.7389ZM337.975 38.9144C334.632 40.3405 332.469 42.2105 332.469 43.6933C332.469 45.1761 334.632 47.0556 337.975 48.4722C338.787 48.8217 339.675 49.1334 340.591 49.4261C341.13 47.575 341.838 45.6483 342.716 43.6744C341.847 41.71 341.149 39.7927 340.62 37.951C339.685 38.2438 338.797 38.5649 337.975 38.9144ZM343.056 25.4182C341.772 26.1548 341.215 28.9599 341.649 32.5677C341.753 33.4555 341.923 34.3905 342.131 35.3444C343.982 34.891 346.003 34.5416 348.128 34.3149C349.403 32.5677 350.725 30.981 352.057 29.5927C348.978 26.731 346.088 25.1632 344.124 25.1632C343.699 25.1726 343.34 25.2576 343.056 25.4182ZM365.459 32.6149C365.903 29.0071 365.355 26.2021 364.08 25.456C363.796 25.286 363.428 25.2104 362.994 25.2104C361.039 25.2104 358.139 26.7687 355.06 29.6115C356.383 30.9999 357.705 32.5771 358.961 34.3244C361.095 34.551 363.116 34.9005 364.968 35.3633C365.185 34.4094 365.355 33.4932 365.459 32.6149ZM369.095 38.9144C368.283 38.5649 367.395 38.2533 366.479 37.9605C365.94 39.8116 365.232 41.7383 364.354 43.7122C365.223 45.6767 365.921 47.5939 366.45 49.4356C367.385 49.1428 368.273 48.8217 369.104 48.4722C372.448 47.0461 374.61 45.1761 374.61 43.6933C374.601 42.2105 372.438 40.3311 369.095 38.9144Z"
      fill="white"
    />
    <path
      d="M353.53 39.3772C355.914 39.3772 357.846 41.3096 357.846 43.6934C357.846 46.0771 355.914 48.0095 353.53 48.0095C351.147 48.0095 349.214 46.0771 349.214 43.6934C349.214 41.3096 351.147 39.3772 353.53 39.3772Z"
      fill="white"
    />
  </g>
  <g clip-path="url(#clip3_206_6317)">
    <mask
      id="mask0_206_6317"
      style="mask-type: alpha"
      maskUnits="userSpaceOnUse"
      x="375"
      y="12"
      width="64"
      height="63"
    >
      <path
        d="M406.991 74.4907C424.172 74.4907 438.1 60.563 438.1 43.3824C438.1 26.2018 424.172 12.2742 406.991 12.2742C389.811 12.2742 375.883 26.2018 375.883 43.3824C375.883 60.563 389.811 74.4907 406.991 74.4907Z"
        fill="black"
      />
    </mask>
    <g mask="url(#mask0_206_6317)">
      <path
        d="M406.991 74.4907C424.172 74.4907 438.1 60.563 438.1 43.3824C438.1 26.2018 424.172 12.2742 406.991 12.2742C389.811 12.2742 375.883 26.2018 375.883 43.3824C375.883 60.563 389.811 74.4907 406.991 74.4907Z"
        fill="black"
      />
      <path
        d="M427.561 66.7216L399.783 30.9402H394.549V55.8164H398.736V36.2575L424.274 69.2535C425.427 68.4823 426.524 67.6358 427.561 66.7216Z"
        fill="url(#paint0_linear_206_6317)"
      />
      <path
        d="M419.78 30.9402H415.632V55.8268H419.78V30.9402Z"
        fill="url(#paint1_linear_206_6317)"
      />
    </g>
  </g>
  <g clip-path="url(#clip4_206_6317)">
    <path
      d="M492.851 43.6983C492.851 26.5177 478.923 12.5901 461.742 12.5901C444.562 12.5901 430.634 26.5177 430.634 43.6983C430.634 60.879 444.562 74.8066 461.742 74.8066C478.923 74.8066 492.851 60.879 492.851 43.6983Z"
      fill="#F1F5FB"
    />
    <g clip-path="url(#clip5_206_6317)">
      <path
        d="M449.61 31.2551H441.522L461.743 62.3352L481.963 31.2551H466.494L461.743 38.4621L457.092 31.2551H449.61Z"
        fill="#41B883"
      />
      <path
        d="M481.963 31.2551L461.743 62.3352L441.522 31.2551H449.61L461.743 49.9032L473.976 31.2551H481.963Z"
        fill="#41B883"
      />
      <path
        d="M473.976 31.2551L461.743 49.9933L449.61 31.2551H457.092L461.743 38.4621L466.494 31.2551H473.976Z"
        fill="#35495E"
      />
    </g>
  </g>
  <path
    d="M539.638 43.3836H524.084V47.8276H534.749C533.194 54.4937 528.305 60.0487 521.861 62.2708L496.308 36.7176C498.975 28.9405 506.53 23.3854 515.195 23.3854C521.861 23.3854 527.861 26.7185 531.638 31.8291L534.971 28.9405C530.527 22.941 523.417 18.9414 515.195 18.9414C503.641 18.9414 493.864 27.1629 491.42 38.0508L520.75 67.3814C531.416 64.715 539.638 54.9381 539.638 43.3836ZM490.753 43.6058C490.753 49.8275 493.197 55.8269 497.864 60.4931C502.53 65.1594 508.752 67.6036 514.751 67.6036L490.753 43.6058Z"
    fill="white"
  />
  <path
    d="M515.194 12.2737C498.084 12.2737 484.086 26.2724 484.086 43.3819C484.086 60.4915 498.084 74.4902 515.194 74.4902C532.303 74.4902 546.302 60.4915 546.302 43.3819C546.302 26.2724 532.303 12.2737 515.194 12.2737ZM497.862 60.7137C493.196 56.0474 490.752 49.8258 490.752 43.8263L514.972 67.8241C508.75 67.6019 502.528 65.3799 497.862 60.7137ZM520.527 67.1575L491.418 38.0491C493.863 27.1612 503.639 18.9397 515.194 18.9397C523.415 18.9397 530.526 22.9394 534.97 28.9388L531.637 31.8274C527.859 26.7168 521.86 23.3838 515.194 23.3838C506.528 23.3838 499.195 28.9388 496.307 36.7159L521.86 62.2691C528.304 60.0471 533.192 54.492 534.748 47.826H524.082V43.3819H539.636C539.636 54.9364 531.415 64.7133 520.527 67.1575Z"
    fill="#663399"
  />
  <g clip-path="url(#clip6_206_6317)">
    <path
      d="M601.053 43.6981C601.053 26.5175 587.126 12.5898 569.945 12.5898C552.764 12.5898 538.837 26.5175 538.837 43.6981C538.837 60.8787 552.764 74.8064 569.945 74.8064C587.126 74.8064 601.053 60.8787 601.053 43.6981Z"
      fill="#383838"
    />
    <path
      d="M559.468 59.6145L569.945 63.0632L580.422 59.6145L582.141 35.4485H557.75L559.468 59.6145ZM577.793 39.4936L577.562 42.7297H565.575L565.868 46.8827H577.274L576.579 56.6234L569.945 58.8403L563.311 56.6234L563.084 53.3549H566.32L566.386 54.2444L569.945 55.4257L573.505 54.2446L573.796 50.1188H562.842L562.097 39.4936H577.793Z"
      fill="#FF5722"
    />
    <path
      d="M560.176 33.0296V30.5132H562.535V33.0296H563.745V27.158H562.535V29.5373H560.176V27.158H558.966V33.0296H560.176ZM567.423 33.0296V28.1379H569.221V27.158H564.439V28.1379H566.213V33.0296H567.423ZM571.121 33.0296V31.4246L571 28.6581L572.581 33.0296H573.411L574.996 28.6541L574.875 31.4246V33.0296H576.089V27.158H574.5L573 31.4165L571.492 27.158H569.911V33.0296H571.121ZM580.924 33.0296V32.0577H578.356V27.158H577.146V33.0296H580.924Z"
      fill="white"
    />
  </g>
  <circle cx="623.396" cy="43.3819" r="31.1083" fill="#242938" />
  <g clip-path="url(#clip7_206_6317)">
    <path
      d="M606.977 31.7561L608.179 50.5019L619.601 25.9355L606.977 31.7561ZM614.901 55.9945L623.509 60.9132L632.117 55.9945L630.368 51.7589H616.623L614.901 55.9945ZM623.509 35.2538L619 46.239H628.018L623.509 35.2538ZM638.839 50.5019L640.042 31.7561L627.417 25.9355L638.839 50.5019Z"
      fill="url(#paint2_linear_206_6317)"
    />
    <path
      d="M606.977 31.7561L608.179 50.5019L619.601 25.9355L606.977 31.7561ZM614.901 55.9945L623.509 60.9132L632.117 55.9945L630.368 51.7589H616.623L614.901 55.9945ZM623.509 35.2538L619 46.239H628.018L623.509 35.2538ZM638.839 50.5019L640.042 31.7561L627.417 25.9355L638.839 50.5019Z"
      fill="url(#paint3_linear_206_6317)"
    />
  </g>
  <g clip-path="url(#clip8_206_6317)">
    <path
      d="M709.256 43.6981C709.256 26.5175 695.328 12.5898 678.148 12.5898C660.967 12.5898 647.039 26.5175 647.039 43.6981C647.039 60.8787 660.967 74.8064 678.148 74.8064C695.328 74.8064 709.256 60.8787 709.256 43.6981Z"
      fill="#EEFBFF"
    />
    <g clip-path="url(#clip9_206_6317)">
      <path
        d="M678.642 25.0337L659.483 43.6003L665.413 49.347L690.502 25.0337H678.642ZM678.508 42.1555L668.25 52.0966L674.203 57.9511L680.122 52.215L690.502 42.1555H678.508Z"
        fill="#47C5FB"
      />
      <path
        d="M674.202 57.9507L678.708 62.3175H690.502L680.121 52.2146L674.202 57.9507Z"
        fill="#00569E"
      />
      <path
        d="M668.183 52.1609L674.113 46.4141L680.121 52.2147L674.202 57.9508L668.183 52.1609Z"
        fill="#00B5F8"
      />
      <path
        d="M674.202 57.9509L679.131 56.3659L679.621 52.7L674.202 57.9509Z"
        fill="url(#paint4_linear_206_6317)"
        fill-opacity="0.8"
      />
    </g>
  </g>
  <!-- SwiftUI icon -->
  <circle cx="733" cy="43.6981" r="31.1083" fill="url(#swiftui_grad)"/>
  <g transform="translate(701.30 12.19) scale(0.7954)">
    <path d="M45.0744 21.3715C45.0744 21.3715 54.5386 26.7818 57.0155 35.3768C59.2472 43.1406 57.46 46.846 57.46 46.846C58.6013 48.0895 59.5007 49.5351 60.1119 51.1085C60.7258 52.1194 61.0865 53.2636 61.1634 54.4438C61.2402 55.624 61.0309 56.8054 60.5533 57.8874C60.5533 57.8874 60.4011 54.7209 55.6819 54.0648C51.357 53.4559 49.7844 57.6666 41.5243 57.4626C36.9476 57.3754 32.4617 56.17 28.4577 53.9515C24.4537 51.733 21.0531 48.5687 18.5525 44.7345C22.5882 46.9358 27.8752 50.3534 34.4592 49.8282C41.0433 49.303 42.4179 47.2798 42.4179 47.2798C35.0172 41.4234 28.4663 34.5668 22.9535 26.9066C28.1294 31.2376 40.9504 39.857 40.652 39.6378C35.9624 35.0554 31.6717 30.0817 27.8265 24.7708C27.8265 24.7708 47.0625 40.5862 48.6107 40.4857C49.247 39.175 52.5368 32.39 45.0728 21.3699L45.0744 21.3715Z" fill="white"/>
  </g>
  <!-- Compose icon -->
  <circle cx="788" cy="43.6981" r="31.1083" fill="#00E17A"/>
  <g transform="translate(756.20 12.19) scale(0.7954)">
    <path d="M40.2397 16.1685C39.2686 16.1202 38.3042 16.3538 37.4629 16.8412L21.4962 26.0575C20.7172 26.5099 20.0736 27.1629 19.6326 27.9485L27.3706 32.1919C27.6651 31.7191 28.0696 31.3246 28.5497 31.0421L38.2314 25.4493C38.7547 25.1475 39.3481 24.9885 39.9522 24.9885C40.5563 24.9885 41.1498 25.1475 41.6731 25.4493L51.3548 31.0421C51.7545 31.2698 52.1043 31.5758 52.3834 31.9416L60.0509 27.5124C59.6303 26.9178 59.086 26.4215 58.4552 26.0575L42.5003 16.8412C41.8122 16.4453 41.0403 16.2174 40.2475 16.1764L40.2397 16.1685ZM39.9562 25.7739C39.4894 25.7738 39.0307 25.8966 38.6264 26.1298L28.9467 31.7148C28.5877 31.9242 28.2835 32.2157 28.0589 32.5654L31.8135 34.6284C31.9778 34.4107 32.1839 34.2279 32.4197 34.0907L38.951 30.3205C39.2637 30.1407 39.618 30.046 39.9786 30.046C40.3393 30.046 40.6936 30.1407 41.0063 30.3205L47.5298 34.0907C47.7031 34.197 47.8599 34.3281 47.9952 34.4798L48.0304 34.4603L48.0265 34.4564L51.697 32.3444C51.4944 32.0917 51.2472 31.8782 50.9676 31.7148L41.2878 26.122C40.8829 25.8912 40.4242 25.7712 39.9581 25.7739H39.9562ZM60.3559 28.0208L52.6904 32.4402C52.9466 32.9303 53.0808 33.4751 53.0815 34.0281V45.2038C53.0815 46.4299 52.4322 47.5699 51.3606 48.1918L41.6809 53.7845C41.2946 54.0034 40.8696 54.1455 40.4294 54.203V63.0497C41.1558 62.9977 41.8623 62.7889 42.5003 62.4376L58.461 53.2213C59.2268 52.7795 59.8628 52.1439 60.3053 51.3785C60.7477 50.613 60.981 49.7447 60.9817 48.8606V30.4319C60.9777 29.5922 60.764 28.7667 60.3598 28.0306L60.3559 28.0208ZM19.4136 28.4862C19.1387 29.0957 18.9878 29.7538 18.9697 30.4222V48.8625C18.9697 50.6577 19.9299 52.3179 21.4982 53.2213L37.459 62.4376C38.1899 62.8536 39.0136 63.0795 39.8545 63.0947V54.2343C39.2817 54.219 38.7218 54.0611 38.2255 53.7747L28.5478 48.1937C28.0252 47.8896 27.5918 47.4534 27.2908 46.929C26.9898 46.4046 26.8319 45.8104 26.8328 45.2057V34.0281C26.8311 33.575 26.9182 33.1259 27.089 32.7062L19.4136 28.4862ZM52.0118 32.8333L48.3159 34.9687C48.4641 35.2462 48.547 35.5539 48.5584 35.8682V43.4086C48.5584 44.1478 48.1673 44.8166 47.5298 45.1823L41.0063 48.9564C40.8257 49.0549 40.6311 49.1255 40.4294 49.1656V53.4091C40.7266 53.3563 41.0239 53.2565 41.2898 53.1021L50.9676 47.5113C51.3725 47.2775 51.7086 46.9411 51.9421 46.536C52.1755 46.1309 52.2981 45.6714 52.2973 45.2038V34.0281C52.2949 33.6155 52.1965 33.2091 52.0099 32.8411L52.0118 32.8333ZM27.789 33.0875C27.6753 33.3881 27.617 33.7068 27.6169 34.0281V45.2038C27.6162 45.6714 27.7387 46.1309 27.9722 46.536C28.2056 46.9411 28.5418 47.2775 28.9467 47.5113L38.6264 53.104C39.0058 53.323 39.4321 53.4286 39.8525 53.4501V49.1989C39.5382 49.1884 39.2306 49.1061 38.953 48.9584L32.4275 45.1881C32.1137 45.0093 31.8524 44.7511 31.6699 44.4395C31.4873 44.1279 31.3898 43.7737 31.3872 43.4126V35.878C31.3879 35.6228 31.439 35.3703 31.5377 35.1349L31.4712 35.1095L27.789 33.0875Z" fill="white"/>
  </g>
  <defs>
    <linearGradient
      id="swiftui_grad"
      x1="733"
      y1="12.59"
      x2="733"
      y2="74.81"
      gradientUnits="userSpaceOnUse"
    >
      <stop stop-color="#F88535" />
      <stop offset="1" stop-color="#FD2221" />
    </linearGradient>
    <linearGradient
      id="paint0_linear_206_6317"
      x1="413.56"
      y1="52.5431"
      x2="425.83"
      y2="67.7516"
      gradientUnits="userSpaceOnUse"
    >
      <stop stop-color="white" />
      <stop offset="1" stop-color="white" stop-opacity="0" />
    </linearGradient>
    <linearGradient
      id="paint1_linear_206_6317"
      x1="417.706"
      y1="30.9402"
      x2="417.637"
      y2="49.2163"
      gradientUnits="userSpaceOnUse"
    >
      <stop stop-color="white" />
      <stop offset="1" stop-color="white" stop-opacity="0" />
    </linearGradient>
    <linearGradient
      id="paint2_linear_206_6317"
      x1="636.98"
      y1="48.8159"
      x2="610.67"
      y2="36.313"
      gradientUnits="userSpaceOnUse"
    >
      <stop stop-color="#E40035" />
      <stop offset="0.24" stop-color="#F60A48" />
      <stop offset="0.352" stop-color="#F20755" />
      <stop offset="0.494" stop-color="#DC087D" />
      <stop offset="0.745" stop-color="#9717E7" />
      <stop offset="1" stop-color="#6C00F5" />
    </linearGradient>
    <linearGradient
      id="paint3_linear_206_6317"
      x1="633.146"
      y1="29.4686"
      x2="615.928"
      y2="49.1096"
      gradientUnits="userSpaceOnUse"
    >
      <stop stop-color="#FF31D9" />
      <stop offset="1" stop-color="#FF5BE1" stop-opacity="0" />
    </linearGradient>
    <linearGradient
      id="paint4_linear_206_6317"
      x1="674.417"
      y1="54.1173"
      x2="678.286"
      y2="55.5561"
      gradientUnits="userSpaceOnUse"
    >
      <stop />
      <stop offset="1" stop-opacity="0" />
    </linearGradient>
    <clipPath id="clip0_206_6317">
      <rect width="21.436" height="33.6851" fill="white" transform="translate(36.6942 26.6541)" />
    </clipPath>
    <clipPath id="clip1_206_6317">
      <rect width="46.6624" height="46.6624" fill="white" transform="translate(276.107 20.3669)" />
    </clipPath>
    <clipPath id="clip2_206_6317">
      <rect width="46.6624" height="46.6624" fill="white" transform="translate(330.209 20.3669)" />
    </clipPath>
    <clipPath id="clip3_206_6317">
      <rect width="62.2165" height="62.2165" fill="white" transform="translate(376.533 12.5898)" />
    </clipPath>
    <clipPath id="clip4_206_6317">
      <rect width="62.2165" height="62.2165" fill="white" transform="translate(430.634 12.5898)" />
    </clipPath>
    <clipPath id="clip5_206_6317">
      <rect
        width="40.4407"
        height="31.1083"
        fill="white"
        transform="matrix(-1 0 0 1 481.963 31.2551)"
      />
    </clipPath>
    <clipPath id="clip6_206_6317">
      <rect width="62.2165" height="62.2165" fill="white" transform="translate(538.837 12.5898)" />
    </clipPath>
    <clipPath id="clip7_206_6317">
      <rect
        width="34.9777"
        height="34.9777"
        fill="white"
        transform="matrix(-1 0 0 1 640.998 25.9355)"
      />
    </clipPath>
    <clipPath id="clip8_206_6317">
      <rect width="62.2165" height="62.2165" fill="white" transform="translate(647.039 12.5898)" />
    </clipPath>
    <clipPath id="clip9_206_6317">
      <rect width="31.1083" height="37.3299" fill="white" transform="translate(659.483 25.0332)" />
    </clipPath>
  </defs>
</svg>
